D:\school\WTK\thesis\model\3dpredictsim\Results\Batchsim_tmt_linear_v2\Pog_s1_tmt_aCst_d05_k2000_ig24_act_GRF.mot
nRows=20
nColumns=19

name D:\school\WTK\thesis\model\3dpredictsim\Results\Batchsim_tmt_linear_v2\Pog_s1_tmt_aCst_d05_k2000_ig24_act_GRF.mot
datacolumns 19
datarows 20
range 0.0000000000 0.2205252534
endheader
time 	ground_force_vx	ground_force_vy	ground_force_vz	ground_force_px	ground_force_py	ground_force_pz	1_ground_force_vx	1_ground_force_vy	1_ground_force_vz	1_ground_force_px	1_ground_force_py	1_ground_force_pz	ground_torque_x	ground_torque_y	ground_torque_z	1_ground_torque_x	1_ground_torque_y	1_ground_torque_z
        0.0000000000	      -71.5126806541	       54.7651558328	        8.3351163837	        0.3340827471	        0.0000000000	        0.0335399302	       47.3780775233	      266.0135664961	      -10.3078016306	       -0.3424577593	        0.0000000000	       -0.0405538175	        0.0000000000	        0.0000000000	        0.0000000000	        0.0000000000	        0.0000000000	        0.0000000000	
        0.0116065923	     -130.5684273239	      113.5701911739	       16.5241218380	        0.3271450920	        0.0000000000	        0.0384094517	       31.0871521968	      217.9053930970	      -12.5903592975	       -0.3302890003	        0.0000000000	       -0.0374762836	        0.0000000000	        0.0000000000	        0.0000000000	        0.0000000000	        0.0000000000	        0.0000000000	
        0.0232131846	     -243.0453551984	      322.5647015110	       25.8971207190	        0.3045738978	        0.0000000000	        0.0487891403	       35.2872286889	      182.7697133622	      -15.6063122539	       -0.3297209060	        0.0000000000	       -0.0377143438	        0.0000000000	        0.0000000000	        0.0000000000	        0.0000000000	        0.0000000000	        0.0000000000	
        0.0348197769	     -181.1419106152	      506.2834874690	       -1.3973600341	        0.2833292400	        0.0000000000	        0.0562821061	       33.3852804435	      140.1725668785	      -19.7443313933	       -0.3291937240	        0.0000000000	       -0.0381100158	        0.0000000000	        0.0000000000	        0.0000000000	        0.0000000000	        0.0000000000	        0.0000000000	
        0.0464263691	     -177.1444643894	      709.0765079442	      -11.6537839325	        0.2733987281	        0.0000000000	        0.0594044453	       23.6565172585	       90.3763029546	      -17.6722449412	       -0.3288459427	        0.0000000000	       -0.0382827365	        0.0000000000	        0.0000000000	        0.0000000000	        0.0000000000	        0.0000000000	        0.0000000000	
        0.0580329614	     -190.3884638696	      890.7930492417	      -20.8209356378	        0.2663607290	        0.0000000000	        0.0616017906	        6.1385816204	       33.9867062502	       -8.7905503861	       -0.3292399188	        0.0000000000	       -0.0382904426	        0.0000000000	        0.0000000000	        0.0000000000	        0.0000000000	        0.0000000000	        0.0000000000	
        0.0696395537	     -188.9470707211	      957.1419880147	      -23.9012004167	        0.2620964086	        0.0000000000	        0.0627508013	        0.2155033594	       -0.2252945480	        0.0290537398	        0.0000000000	        0.0000000000	        0.0000000000	        0.0000000000	        0.0000000000	        0.0000000000	        0.0000000000	        0.0000000000	        0.0000000000	
        0.0812461460	     -170.7583942919	      942.7986858984	      -22.6928035364	        0.2585934761	        0.0000000000	        0.0634174812	        0.0087885515	       -0.0070643089	       -0.0000752106	        0.0000000000	        0.0000000000	        0.0000000000	        0.0000000000	        0.0000000000	        0.0000000000	        0.0000000000	        0.0000000000	        0.0000000000	
        0.0928527383	     -148.3968676596	      882.0222700957	      -21.8287567465	        0.2572813939	        0.0000000000	        0.0637392716	        0.1807651518	       -0.1206981711	       -0.0064938494	        0.0000000000	        0.0000000000	        0.0000000000	        0.0000000000	        0.0000000000	        0.0000000000	        0.0000000000	        0.0000000000	        0.0000000000	
        0.1044593306	     -129.9669988638	      810.8772879389	      -19.4331371861	        0.2574953154	        0.0000000000	        0.0639312913	       -1.8700617771	        1.0932997939	        0.0830542480	        0.0000000000	        0.0000000000	        0.0000000000	        0.0000000000	        0.0000000000	        0.0000000000	        0.0000000000	        0.0000000000	        0.0000000000	
        0.1160659228	     -113.7782842172	      755.5505469501	      -18.6191384834	        0.2584737530	        0.0000000000	        0.0640646903	       -2.1703966157	        1.1466028371	        0.1049494162	        0.0000000000	        0.0000000000	        0.0000000000	        0.0000000000	        0.0000000000	        0.0000000000	        0.0000000000	        0.0000000000	        0.0000000000	
        0.1276725151	      -98.3904494143	      716.3866906318	      -18.9104076995	        0.2600612075	        0.0000000000	        0.0641070120	       -1.9392393146	        0.9472047660	        0.0966711643	        0.0000000000	        0.0000000000	        0.0000000000	        0.0000000000	        0.0000000000	        0.0000000000	        0.0000000000	        0.0000000000	        0.0000000000	
        0.1392791074	      -85.3334723490	      686.4536813293	      -19.0209938358	        0.2621493954	        0.0000000000	        0.0640407525	       -1.4513699787	        0.6750573708	        0.0616842327	        0.0000000000	        0.0000000000	        0.0000000000	        0.0000000000	        0.0000000000	        0.0000000000	        0.0000000000	        0.0000000000	        0.0000000000	
        0.1508856997	      -75.7657004271	      663.3151079237	      -19.4983363325	        0.2644975789	        0.0000000000	        0.0638713567	       -1.1027614695	        0.4925120223	        0.0405727119	        0.0000000000	        0.0000000000	        0.0000000000	        0.0000000000	        0.0000000000	        0.0000000000	        0.0000000000	        0.0000000000	        0.0000000000	
        0.1624922920	      -68.1441963507	      644.0825035387	      -20.3653496951	        0.2669145934	        0.0000000000	        0.0636265168	       -0.8957133402	        0.3875753005	        0.0279734273	        0.0000000000	        0.0000000000	        0.0000000000	        0.0000000000	        0.0000000000	        0.0000000000	        0.0000000000	        0.0000000000	        0.0000000000	
        0.1740988843	      -61.5649368439	      626.3652918048	      -21.0343130995	        0.2692577529	        0.0000000000	        0.0633489997	       -0.7856929296	        0.3315980591	        0.0204961616	        0.0000000000	        0.0000000000	        0.0000000000	        0.0000000000	        0.0000000000	        0.0000000000	        0.0000000000	        0.0000000000	        0.0000000000	
        0.1857054765	      -55.7300361067	      609.8895170686	      -21.3261873780	        0.2713790791	        0.0000000000	        0.0630736022	       -0.7547423974	        0.3121845455	        0.0161254845	        0.0000000000	        0.0000000000	        0.0000000000	        0.0000000000	        0.0000000000	        0.0000000000	        0.0000000000	        0.0000000000	        0.0000000000	
        0.1973120688	      -50.4183702666	      595.1086165800	      -21.8726459711	        0.2731698298	        0.0000000000	        0.0627992085	       -0.7902132618	        0.3214218559	        0.0136552351	        0.0000000000	        0.0000000000	        0.0000000000	        0.0000000000	        0.0000000000	        0.0000000000	        0.0000000000	        0.0000000000	        0.0000000000	
        0.2089186611	      -45.3578688560	      581.7536211999	      -22.4646636879	        0.2746118122	        0.0000000000	        0.0625324905	       -0.8828569400	        0.3540198023	        0.0121879100	        0.0000000000	        0.0000000000	        0.0000000000	        0.0000000000	        0.0000000000	        0.0000000000	        0.0000000000	        0.0000000000	        0.0000000000	
        0.2205252534	      -40.4934219316	      569.4521596399	      -23.0637838513	        0.2758080523	        0.0000000000	        0.0622635029	       -1.0236734620	        0.4053881654	        0.0114887417	        0.0000000000	        0.0000000000	        0.0000000000	        0.0000000000	        0.0000000000	        0.0000000000	        0.0000000000	        0.0000000000	        0.0000000000	
